<?xml version="1.0" standalone="no"?><!DOCTYPE svg PUBLIC "-//W3C//DTD SVG 1.1//EN" "http://www.w3.org/Graphics/SVG/1.1/DTD/svg11.dtd"><svg t="1620960427991" class="icon" viewBox="0 0 1024 1024" version="1.1" xmlns="http://www.w3.org/2000/svg" p-id="2859" xmlns:xlink="http://www.w3.org/1999/xlink" width="32" height="32"><defs><style type="text/css">html, * { user-select: text !important; }
</style></defs><path d="M512 64C264.6 64 64 264.6 64 512s200.6 448 448 448 448-200.6 448-448S759.4 64 512 64z m193.1 350.5L475.7 643.7c-0.4 0.4-0.7 0.8-1.1 1.2-8.3 8.3-21.1 9.6-30.7 3.7-1.7-1-3.4-2.3-4.8-3.7-0.4-0.4-0.8-0.9-1.2-1.3L319 524.7c-9.7-9.7-9.7-25.6 0-35.4 9.7-9.7 25.6-9.7 35.4 0L457 591.8 669.8 379c9.7-9.7 25.6-9.7 35.4 0 9.6 9.8 9.6 25.7-0.1 35.5z" p-id="2860" fill="#1be3f8"></path></svg>