<?xml version="1.0" standalone="no"?><!DOCTYPE svg PUBLIC "-//W3C//DTD SVG 1.1//EN" "http://www.w3.org/Graphics/SVG/1.1/DTD/svg11.dtd"><svg t="1620961354756" class="icon" viewBox="0 0 1024 1024" version="1.1" xmlns="http://www.w3.org/2000/svg" p-id="3628" data-spm-anchor-id="a313x.7781069.0.i37" width="32" height="32" xmlns:xlink="http://www.w3.org/1999/xlink"><defs><style type="text/css">html, * { user-select: text !important; }
</style></defs><path d="M512 512m-448 0a448 448 0 1 0 896 0 448 448 0 1 0-896 0Z" fill="#1be3f8" opacity=".6" p-id="3629"></path><path d="M352.9 671.1c-9.7-9.7-9.7-25.6 0-35.4l282.8-282.8c9.7-9.7 25.6-9.7 35.4 0 9.7 9.7 9.7 25.6 0 35.4L388.3 671.1c-9.8 9.7-25.7 9.7-35.4 0z" fill="#1be3f8" p-id="3630"></path><path d="M352.9 352.9c9.7-9.7 25.6-9.7 35.4 0l282.8 282.8c9.7 9.7 9.7 25.6 0 35.4-9.7 9.7-25.6 9.7-35.4 0L352.9 388.3c-9.7-9.8-9.7-25.7 0-35.4z" fill="#1be3f8" p-id="3631"></path></svg>